<svg width="963" height="230" viewBox="0 0 963 230" fill="none" xmlns="http://www.w3.org/2000/svg">
<path d="M217.788 156H119.773L135.415 134.051H171.745L147.903 99.6129L107.915 156H77.3876L131.504 79.6819C135.162 74.636 140.208 70.2209 148.281 70.2209C156.103 70.2209 161.274 74.3838 164.933 79.6819L217.788 156ZM312.878 71.6085H346.433L302.786 112.858L348.577 156H312.247L283.234 128.626L254.977 156H221.044L266.961 113.363L222.684 71.6085H259.014L286.513 97.4684L312.878 71.6085ZM384.534 156H358.421V71.6085H384.534V156Z" fill="#D9D9D9"/>
<path d="M515.081 102.388C515.081 115.507 507.638 125.094 494.771 130.014L520.253 156H485.815L464.622 133.546H426.4V156H400.414V112.48H475.219C484.806 112.48 488.968 109.705 488.968 103.397C488.968 96.5854 484.553 93.5579 475.092 93.5579H400.414L417.822 71.6085H472.569C499.06 71.6085 515.081 83.0878 515.081 102.388ZM586.461 70.2209C628.342 70.2209 648.273 84.2231 648.273 113.741C648.273 143.259 628.342 157.388 586.461 157.388C544.707 157.388 524.902 143.385 524.902 113.741C524.902 84.2231 544.581 70.2209 586.461 70.2209ZM586.461 92.1703C558.331 92.1703 550.888 96.7115 550.888 113.741C550.888 130.897 558.457 135.438 586.461 135.438C614.718 135.438 622.16 130.897 622.16 113.741C622.16 96.5854 614.844 92.1703 586.461 92.1703ZM782.361 71.6085L728.244 147.927C723.829 154.234 718.152 157.388 711.467 157.388C704.781 157.388 699.483 154.486 694.942 147.927L642.087 71.6085H673.118L712.097 129.005L751.833 71.6085H782.361ZM886.335 156H788.32L803.962 134.051H840.292L816.45 99.6129L776.462 156H745.935L800.052 79.6819C803.71 74.636 808.756 70.2209 816.829 70.2209C824.65 70.2209 829.822 74.3838 833.48 79.6819L886.335 156Z" fill="url(#paint0_linear_236_9)"/>
<defs>
<linearGradient id="paint0_linear_236_9" x1="76" y1="130" x2="888" y2="130" gradientUnits="userSpaceOnUse">
<stop stop-color="#06B6D4"/>
<stop offset="1" stop-color="#234C90"/>
</linearGradient>
</defs>
</svg>
