<svg width="1054" height="230" viewBox="0 0 1054 230" fill="none" xmlns="http://www.w3.org/2000/svg">
<path d="M34.554 164.882L90.9627 72.0537L117.545 113.288L105.928 121.66L90.9627 99.7871L60.9269 150.963L74.3226 146.777C85.5341 140.616 92.4514 136.54 105.928 128.148L180.442 72.0537H198.338L120.58 130.66C101.23 146.891 88.8825 154.7 60.9269 163.522C50.8192 166.551 45.0322 166.713 34.554 164.882Z" fill="url(#paint0_linear_236_6)"/>
<path d="M117.545 138.3L129.79 130.66L152.918 164.882H135.336L117.545 138.3Z" fill="url(#paint1_linear_236_6)"/>
<path d="M136.173 122.602L147.999 113.288L194.466 163.522L175.628 164.882L136.173 122.602Z" fill="url(#paint2_linear_236_6)"/>
<path d="M34.554 164.882L90.9627 72.0537L117.545 113.288L105.928 121.66L90.9627 99.7871L60.9269 150.963L74.3226 146.777C85.5341 140.616 92.4514 136.54 105.928 128.148L180.442 72.0537H198.338L120.58 130.66C101.23 146.891 88.8825 154.7 60.9269 163.522C50.8192 166.551 45.0322 166.713 34.554 164.882Z" stroke="black" stroke-width="0.209309"/>
<path d="M117.545 138.3L129.79 130.66L152.918 164.882H135.336L117.545 138.3Z" stroke="black" stroke-width="0.209309"/>
<path d="M136.173 122.602L147.999 113.288L194.466 163.522L175.628 164.882L136.173 122.602Z" stroke="black" stroke-width="0.209309"/>
<path d="M349.923 159.628H251.908L267.55 137.679H303.88L280.038 103.241L240.05 159.628H209.523L263.639 83.3098C267.298 78.264 272.343 73.8489 280.417 73.8489C288.238 73.8489 293.41 78.0117 297.068 83.3098L349.923 159.628ZM445.013 75.2365H478.568L434.922 116.486L480.712 159.628H444.382L415.369 132.254L387.112 159.628H353.179L399.096 116.991L354.819 75.2365H391.149L418.649 101.096L445.013 75.2365ZM516.669 159.628H490.557V75.2365H516.669V159.628Z" fill="#D9D9D9"/>
<path d="M647.216 106.016C647.216 119.135 639.773 128.722 626.906 133.642L652.388 159.628H617.95L596.758 137.174H558.535V159.628H532.549V116.108H607.354C616.941 116.108 621.104 113.332 621.104 107.025C621.104 100.213 616.689 97.1858 607.228 97.1858H532.549L549.957 75.2365H604.705C631.195 75.2365 647.216 86.7157 647.216 106.016ZM718.597 73.8489C760.477 73.8489 780.408 87.851 780.408 117.369C780.408 146.887 760.477 161.016 718.597 161.016C676.842 161.016 657.037 147.013 657.037 117.369C657.037 87.851 676.716 73.8489 718.597 73.8489ZM718.597 95.7982C690.466 95.7982 683.023 100.339 683.023 117.369C683.023 134.525 690.592 139.066 718.597 139.066C746.853 139.066 754.296 134.525 754.296 117.369C754.296 100.213 746.979 95.7982 718.597 95.7982ZM914.496 75.2365L860.379 151.555C855.964 157.862 850.288 161.016 843.602 161.016C836.916 161.016 831.618 158.114 827.077 151.555L774.222 75.2365H805.254L844.233 132.633L883.969 75.2365H914.496ZM1018.47 159.628H920.455L936.097 137.679H972.427L948.586 103.241L908.598 159.628H878.07L932.187 83.3098C935.845 78.264 940.891 73.8489 948.964 73.8489C956.785 73.8489 961.957 78.0117 965.615 83.3098L1018.47 159.628Z" fill="url(#paint3_linear_236_6)"/>
<defs>
<linearGradient id="paint0_linear_236_6" x1="116.446" y1="72.0537" x2="116.446" y2="166.07" gradientUnits="userSpaceOnUse">
<stop stop-color="#06B6D4"/>
<stop offset="1" stop-color="#234C90"/>
</linearGradient>
<linearGradient id="paint1_linear_236_6" x1="116.446" y1="72.0537" x2="116.446" y2="166.07" gradientUnits="userSpaceOnUse">
<stop stop-color="#06B6D4"/>
<stop offset="1" stop-color="#234C90"/>
</linearGradient>
<linearGradient id="paint2_linear_236_6" x1="116.446" y1="72.0537" x2="116.446" y2="166.07" gradientUnits="userSpaceOnUse">
<stop stop-color="#06B6D4"/>
<stop offset="1" stop-color="#234C90"/>
</linearGradient>
<linearGradient id="paint3_linear_236_6" x1="208.135" y1="133.628" x2="1020.14" y2="133.628" gradientUnits="userSpaceOnUse">
<stop stop-color="#06B6D4"/>
<stop offset="1" stop-color="#234C90"/>
</linearGradient>
</defs>
</svg>
