<svg xmlns="http://www.w3.org/2000/svg" viewBox="0 0 1200 720" role="img" aria-labelledby="title desc">
<title id="title">ISMET CHEF — selected experience visual</title>
<desc id="desc">Abstract AXIROVA case study cover for ISMET CHEF</desc>
<defs>
  <linearGradient id="bg" x1="0" y1="0" x2="1" y2="1"><stop stop-color="#050816"/><stop offset="1" stop-color="#0B1730"/></linearGradient>
  <linearGradient id="accent" x1="0" y1="0" x2="1" y2="1"><stop stop-color="#C99A52"/><stop offset="1" stop-color="#1A2333"/></linearGradient>
  <filter id="blur"><feGaussianBlur stdDeviation="46"/></filter>
</defs>
<rect width="1200" height="720" fill="url(#bg)"/>
<circle cx="990" cy="120" r="250" fill="#C99A52" opacity=".18" filter="url(#blur)"/>
<circle cx="170" cy="650" r="270" fill="#1A2333" opacity=".13" filter="url(#blur)"/>
<g opacity=".18" stroke="#1A2333" fill="none">
  <path d="M0 160H1200M0 320H1200M0 480H1200M0 640H1200"/>
  <path d="M160 0V720M320 0V720M480 0V720M640 0V720M800 0V720M960 0V720M1120 0V720"/>
</g>
<g transform="translate(735 142)">
  <rect width="330" height="390" rx="30" fill="#0A1428" stroke="#C99A52" stroke-opacity=".55"/>
  <rect x="30" y="34" width="270" height="42" rx="12" fill="url(#accent)" opacity=".92"/>
  <rect x="30" y="102" width="126" height="110" rx="18" fill="#C99A52" opacity=".18" stroke="#C99A52" stroke-opacity=".45"/>
  <rect x="174" y="102" width="126" height="110" rx="18" fill="#1A2333" opacity=".14" stroke="#1A2333" stroke-opacity=".4"/>
  <rect x="30" y="238" width="270" height="18" rx="9" fill="#DDE8FF" opacity=".16"/>
  <rect x="30" y="274" width="216" height="18" rx="9" fill="#DDE8FF" opacity=".12"/>
  <rect x="30" y="326" width="118" height="34" rx="10" fill="url(#accent)"/>
</g>
<g transform="translate(90 105)">
  <rect width="102" height="32" rx="16" fill="url(#accent)"/>
  <text x="0" y="145" fill="#F6F9FF" font-family="Arial, sans-serif" font-size="52" font-weight="700">ISMET CHEF</text>
  <text x="0" y="195" fill="#1A2333" font-family="Arial, sans-serif" font-size="18" letter-spacing="5">F&B DIGITAL</text>
  <path d="M0 245H520" stroke="url(#accent)" stroke-width="3"/>
  <text x="0" y="300" fill="#A8B7D3" font-family="Arial, sans-serif" font-size="20">SELECTED EXPERIENCE</text>
  <text x="0" y="560" fill="#8292AF" font-family="Arial, sans-serif" font-size="16" letter-spacing="4">AXIROVA · BUILD SMARTER. SCALE FASTER.</text>
</g>
</svg>